<?xml version="1.0" standalone="no"?><!DOCTYPE svg PUBLIC "-//W3C//DTD SVG 1.1//EN" "http://www.w3.org/Graphics/SVG/1.1/DTD/svg11.dtd"><svg class="icon" width="200px" height="200.00px" viewBox="0 0 1024 1024" version="1.1" xmlns="http://www.w3.org/2000/svg"><path d="M694.4 499.2c0-16-12.8-28.8-28.8-28.8s-28.8 12.8-28.8 28.8c0 67.2-54.4 121.6-121.6 121.6-67.2 0-121.6-54.4-121.6-121.6 0-16-12.8-28.8-28.8-28.8S336 483.2 336 499.2c0 99.2 80 182.4 182.4 182.4 92.8 0 176-83.2 176-182.4z"  /><path d="M678.4 812.8c144-64 243.2-208 243.2-374.4C921.6 214.4 736 32 512 32c-224 0-409.6 182.4-409.6 409.6C102.4 608 201.6 752 345.6 816c-83.2 25.6-147.2 73.6-172.8 137.6-6.4 16 0 32 16 38.4h12.8c12.8 0 22.4-6.4 28.8-19.2 32-73.6 147.2-124.8 284.8-124.8 131.2 0 243.2 51.2 281.6 124.8 6.4 16 25.6 22.4 41.6 12.8 16-6.4 22.4-25.6 12.8-41.6-28.8-57.6-92.8-102.4-172.8-131.2zM163.2 441.6c0-192 156.8-348.8 348.8-348.8s348.8 156.8 348.8 348.8S704 787.2 512 787.2 163.2 633.6 163.2 441.6z"  /></svg>